<svg xmlns="http://www.w3.org/2000/svg" fill="none" viewBox="0 0 120 20" height="20" width="120">
<g clip-path="url(#clip0_20791_14235)">
<path fill="#4F9135" d="M77.0622 14.1387L73.4622 17.696C75.0486 18.9787 76.9378 19.712 78.873 19.8987L78.8676 14.704V14.4267C78.8676 14.4267 78.8784 13.984 78.5108 13.7333C78.1162 13.464 77.8108 13.5813 77.7297 13.608C77.5784 13.6587 77.4811 13.736 77.3838 13.8187L77.0649 14.1333L77.0622 14.1387Z"></path>
<path fill="#AAC27F" d="M84.1271 12.7253L87.7271 16.2827C89.0298 14.72 89.7758 12.856 89.9731 10.952L84.7082 10.9467H84.4271C84.4271 10.9467 83.9785 10.9333 83.7244 11.296C83.4515 11.6853 83.5677 11.9867 83.5974 12.0667C83.6488 12.216 83.7271 12.312 83.8109 12.4107L84.1298 12.728L84.1271 12.7253Z"></path>
<path fill="#AAC27F" d="M84.8758 8.95199H89.9704C89.7704 6.93865 88.9622 5.10132 87.7298 3.61865L84.0055 7.29065L83.8082 7.48799C83.8082 7.48799 83.4812 7.79199 83.5622 8.22665C83.6487 8.69065 83.9487 8.82399 84.0244 8.86132C84.1676 8.93065 84.292 8.94399 84.4217 8.95465H84.873L84.8758 8.95199Z"></path>
<path fill="#AAC27F" d="M82.7 5.76267L86.3027 2.208C84.7189 0.925333 82.8297 0.189333 80.8973 0V5.19467V5.472C80.8973 5.472 80.8838 5.91467 81.2513 6.16533C81.6459 6.432 81.9513 6.31733 82.0324 6.29067C82.1838 6.24 82.2811 6.16267 82.3811 6.08L82.7027 5.76533L82.7 5.76267Z"></path>
<path fill="#4F9135" d="M78.8703 5.024V0C76.827 0.197333 74.9649 0.997333 73.4622 2.21067L77.1865 5.88267L77.3865 6.07733C77.3865 6.07733 77.6946 6.4 78.1351 6.32C78.6054 6.23467 78.7405 5.93867 78.7784 5.864C78.8487 5.72267 78.8622 5.6 78.873 5.472V5.024H78.8703Z"></path>
<path fill="#4F9135" d="M75.6352 7.17065L72.0325 3.61865C70.7325 5.18399 69.9866 7.04532 69.7947 8.95199H75.3406C75.3406 8.95199 75.7893 8.96265 76.0433 8.59999C76.3163 8.21065 76.1974 7.90932 76.1704 7.82932C76.119 7.67999 76.0406 7.58399 75.9568 7.48799L75.6379 7.17065H75.6352Z"></path>
<path fill="#AAC27F" d="M80.8892 14.88L80.8946 19.9067C82.9351 19.7067 84.7973 18.9067 86.3 17.6934L82.5729 14.024L82.3729 13.8294C82.3729 13.8294 82.0648 13.5067 81.6243 13.5894C81.154 13.6747 81.0189 13.9707 80.9811 14.0454C80.9108 14.1867 80.8973 14.3094 80.8892 14.4374V14.8827V14.88Z"></path>
<path fill="#4F9135" d="M74.8893 10.9467H69.7947C69.9974 12.9627 70.8055 14.8 72.0379 16.2827L75.7595 12.6107L75.9568 12.4133C75.9568 12.4133 76.2839 12.1093 76.2028 11.6747C76.1163 11.2107 75.8163 11.0773 75.7406 11.04C75.5974 10.9707 75.4731 10.9573 75.3433 10.9467H74.892H74.8893Z"></path>
<path fill="white" d="M16.3054 14.296C14.627 15.4747 12.6135 16.0613 10.3108 16.0613H1.33514C0.964865 16.0613 0.654054 15.9493 0.397297 15.6987C0.140541 15.4453 0 15.1093 0 14.7467V5.29865C0 4.93332 0.143243 4.59732 0.397297 4.34665C0.651351 4.09332 0.964865 3.95465 1.33514 3.95465H10.3405C12.6405 3.95465 14.6297 4.54398 16.3081 5.69332C17.9838 6.84265 18.8351 8.30132 18.8351 10.0107C18.8351 11.72 17.9838 13.1493 16.3081 14.2987M13.9514 7.20798C12.7297 6.34132 11.2243 5.91998 9.49189 5.91998H2.84054C2.75405 5.91998 2.6973 5.97598 2.6973 6.08798V13.992C2.6973 14.0747 2.75405 14.1307 2.86757 14.1307H9.42973C11.1892 14.1307 12.6973 13.6827 13.9459 12.8133C15.1108 12.0027 15.7054 11.048 15.7054 10.0107C15.7054 8.97332 15.1108 8.02132 13.9459 7.20798"></path>
<path fill="white" d="M40.992 15.64C40.7352 15.92 40.3974 16.0614 40.0271 16.0614C39.6298 16.0614 39.2595 15.8667 38.892 15.4454L37.7271 14.1014C37.3298 13.6507 36.9298 13.4267 36.5622 13.4267L27.3001 13.456C26.846 13.456 26.419 13.68 26.0487 14.1547L25.1109 15.3307C24.7136 15.808 24.3163 16.0587 23.8893 16.0587C23.519 16.0587 23.2082 15.92 22.9514 15.6667C22.6676 15.3867 22.5271 15.0774 22.5271 14.7147C22.5271 14.4054 22.6974 14.04 23.0109 13.6774L30.8812 4.45603C31.1649 4.12003 31.5352 3.95203 31.9893 3.95203C32.3866 3.95203 32.7271 4.12003 33.0406 4.48536L40.8812 13.68C41.2217 14.072 41.392 14.408 41.392 14.7174C41.392 15.0827 41.2487 15.3894 40.9947 15.64M34.5757 10.4L32.3028 7.76536C32.2163 7.65336 32.1028 7.59736 31.9622 7.59736C31.8217 7.59736 31.7055 7.65336 31.6217 7.76536L29.3217 10.4C29.2649 10.456 29.2352 10.5414 29.2352 10.68C29.2352 10.9867 29.3785 11.128 29.6622 11.128H34.2352C34.519 11.128 34.6622 10.9867 34.6622 10.68C34.6622 10.568 34.6325 10.4827 34.5785 10.4"></path>
<path fill="white" d="M63.9756 15.6693C63.7215 15.9227 63.3783 16.0613 63.0107 16.0613C62.6432 16.0613 62.3296 15.9493 62.0729 15.6987C61.8188 15.4453 61.6756 15.1093 61.6756 14.7467L61.6459 11.608C61.6459 11.328 61.5053 11.1867 61.2215 11.1867H48.6648C48.3513 11.1867 48.2107 11.328 48.2107 11.6373V14.7493C48.2107 15.112 48.0675 15.4213 47.8405 15.6747C47.5837 15.928 47.2432 16.0667 46.8756 16.0667C46.508 16.0667 46.1648 15.9547 45.9107 15.704C45.654 15.4507 45.5134 15.1147 45.5134 14.752V5.29865C45.5134 4.93598 45.654 4.59732 45.9107 4.34665C46.1945 4.09332 46.5053 3.95465 46.8756 3.95465C47.2459 3.95465 47.5567 4.09332 47.8134 4.34665C48.0702 4.59732 48.2107 4.93598 48.2107 5.29865V8.43732C48.2107 8.71732 48.354 8.85598 48.6648 8.85598H61.2215C61.5323 8.85598 61.6756 8.71732 61.6756 8.43732V5.29865C61.6756 4.93598 61.8188 4.59732 62.0729 4.34665C62.3296 4.09332 62.6405 3.95465 63.0107 3.95465C63.381 3.95465 63.7215 4.09332 63.9756 4.31998C64.2323 4.57332 64.3729 4.90932 64.3729 5.27465V14.7493C64.3729 15.112 64.2296 15.4213 63.9756 15.6747"></path>
<path fill="white" d="M113.692 15.6427C113.435 15.9227 113.095 16.064 112.724 16.064H112.241C112.014 16.064 111.646 15.896 111.162 15.5893C110.905 15.4213 106.476 12.7573 97.9244 7.57065V14.72C97.9244 15.0853 97.7838 15.4213 97.5271 15.672C97.273 15.9253 96.9595 16.064 96.5892 16.064C96.219 16.064 95.8784 15.952 95.6244 15.7013C95.3676 15.448 95.2244 15.112 95.2244 14.7493V5.29865C95.2244 4.93332 95.3676 4.59732 95.6244 4.34665C95.9082 4.09332 96.219 3.95465 96.5892 3.95465H97.073C97.273 3.95465 97.6406 4.09332 98.1244 4.40265L111.392 12.392V5.30132C111.392 4.93598 111.532 4.59998 111.789 4.34932C112.046 4.09598 112.357 3.95732 112.727 3.95732C113.097 3.95732 113.435 4.09598 113.695 4.32265C113.949 4.57598 114.089 4.91198 114.089 5.27465V14.7227C114.089 15.088 113.949 15.3947 113.695 15.648"></path>
<path fill="white" d="M119.419 15.544C119.059 15.9014 118.622 16.08 118.111 16.08C117.6 16.08 117.162 15.9014 116.805 15.544C116.449 15.1894 116.27 14.7574 116.27 14.2507C116.27 13.744 116.451 13.3227 116.811 12.9654C117.17 12.6107 117.603 12.4347 118.111 12.4347C118.619 12.4347 119.059 12.6107 119.419 12.9654C119.781 13.32 119.959 13.7467 119.959 14.2507C119.959 14.7547 119.781 15.1867 119.419 15.544ZM116.984 13.144C116.673 13.4507 116.519 13.8187 116.519 14.2534C116.519 14.688 116.673 15.064 116.981 15.3707C117.292 15.68 117.665 15.832 118.108 15.832C118.551 15.832 118.927 15.6774 119.235 15.3707C119.543 15.064 119.7 14.6907 119.7 14.2534C119.7 13.816 119.543 13.4507 119.235 13.144C118.924 12.8347 118.549 12.6827 118.108 12.6827C117.668 12.6827 117.295 12.8374 116.984 13.144ZM118.073 13.2507C118.324 13.2507 118.511 13.2747 118.627 13.3227C118.838 13.408 118.943 13.5787 118.943 13.8294C118.943 14.008 118.876 14.1414 118.746 14.224C118.676 14.2667 118.578 14.3014 118.454 14.32C118.614 14.344 118.73 14.408 118.805 14.5147C118.878 14.6214 118.916 14.7227 118.916 14.8214V14.968C118.916 15.0134 118.916 15.0614 118.922 15.1147C118.924 15.168 118.93 15.2 118.938 15.2187L118.949 15.2427H118.614C118.614 15.2427 118.608 15.2294 118.608 15.224C118.608 15.2187 118.605 15.2107 118.603 15.2027L118.595 15.1387V14.9814C118.595 14.752 118.532 14.6 118.403 14.5254C118.327 14.4827 118.192 14.4614 118.003 14.4614H117.719V15.2454H117.362V13.248H118.073V13.2507ZM118.459 13.568C118.37 13.5174 118.227 13.4934 118.024 13.4934H117.719V14.216H118.043C118.195 14.216 118.308 14.2 118.384 14.1707C118.524 14.1147 118.595 14.0134 118.595 13.8587C118.595 13.704 118.549 13.6134 118.459 13.5654"></path>
</g>
<defs>
<clipPath id="clip0_20791_14235">
<rect fill="white" height="20" width="120"></rect>
</clipPath>
</defs>
</svg>
