<svg width="260" height="24" viewBox="0 0 260 24" fill="none" xmlns="http://www.w3.org/2000/svg">
<path fill-rule="evenodd" clip-rule="evenodd" d="M72.8755 15.8685L73.9631 13.8989L103.543 13.8978L105.64 10.0959L76.0588 10.0971L77.1465 8.12757C78.4633 5.73912 82.9339 3.80108 87.1298 3.80147H109.112L111.209 0.000777255L76.096 0.0038862C69.3499 0.00272034 62.165 3.10856 60.0489 6.9485L54.4785 17.0487C52.3608 20.8871 56.1164 23.9964 62.8614 23.9964L97.9725 23.9953L100.072 20.1957L78.0895 20.1965C73.8925 20.1957 71.5601 18.255 72.8755 15.8685Z" fill="white"/>
<path fill-rule="evenodd" clip-rule="evenodd" d="M25.4192 10.1005L26.5049 8.12862C27.82 5.74173 32.2923 3.80174 36.4871 3.80057L58.4703 3.80174L60.5649 0.00182651H25.4537C18.7069 -0.00167106 11.5216 3.10767 9.40548 6.94722L5.57038 13.8965L35.152 13.8984L34.0663 15.8687C32.7505 18.2545 28.2807 20.196 24.0833 20.1964L2.09907 20.1921L0 23.9971L35.1171 23.9986C41.8635 23.9959 49.0477 20.8858 51.1631 17.0463L54.9986 10.1005H25.4192Z" fill="white"/>
<path fill-rule="evenodd" clip-rule="evenodd" d="M149.636 0L114.523 0.00272033L101.288 23.9953L119.036 23.9964L130.174 3.79991H134.407C138.604 3.8003 140.938 5.73679 139.622 8.12757L130.866 23.9964L148.615 23.9945L158.018 6.94734C160.131 3.11284 156.381 0.00427481 149.636 0Z" fill="white"/>
<path fill-rule="evenodd" clip-rule="evenodd" d="M206.92 10.1011L177.339 10.1022L178.427 8.13115C179.743 5.74386 184.213 3.80466 188.411 3.80427L210.39 3.8031L212.488 0.00474117L177.374 0.00629562C170.631 0.00474115 163.445 3.11408 161.331 6.9513L157.497 13.8944L187.073 13.9002L185.987 15.8701C184.67 18.2574 180.202 20.1974 176.004 20.1981L154.029 20.195L151.931 23.9953L187.038 23.9977C193.782 24 200.967 20.8872 203.085 17.0488L204.82 13.8967L206.92 10.1011Z" fill="white"/>
<path fill-rule="evenodd" clip-rule="evenodd" d="M240.901 8.12881L239.814 10.0999L227.984 10.1022L231.453 3.80154L235.689 3.80387C239.883 3.8027 242.218 5.74036 240.901 8.12881ZM250.918 0.00123283L215.804 0.00511902L202.569 24L220.318 23.9977L225.886 13.899L237.716 13.8982L232.148 23.9977L249.896 23.9965L259.299 6.94896C261.415 3.10902 257.662 0.00317592 250.918 0.00123283Z" fill="white"/>
</svg>
